solid Thicker_Shell_Addon
facet normal 1.0 0.0 0.0
  outer loop
    vertex 94.88747233367951 15.596249028182738 14.0349785518753
    vertex 94.88747233367948 9.596249028182747 18.534978551875273
    vertex 94.88747233367948 9.596249028182747 14.034978551875303
  endloop
endfacet
facet normal 1.0 0.0 0.0
  outer loop
    vertex 94.88747233367948 9.596249028182747 18.534978551875273
    vertex 94.88747233367951 15.596249028182738 14.0349785518753
    vertex 94.88747233367951 15.596249028182738 18.53497855187527
  endloop
endfacet
facet normal -1.0 0.0 -0.0
  outer loop
    vertex 95.13747233367951 24.096249028182775 18.534978551875266
    vertex 95.13747233367951 19.096249028182765 14.0349785518753
    vertex 95.13747233367951 19.096249028182765 18.53497855187527
  endloop
endfacet
facet normal -1.0 0.0 -0.0
  outer loop
    vertex 95.13747233367951 19.096249028182765 14.0349785518753
    vertex 95.13747233367951 24.096249028182775 18.534978551875266
    vertex 95.13747233367951 24.096249028182775 14.034978551875296
  endloop
endfacet
facet normal 0.0 1.0 -2.7755575615628914e-16
  outer loop
    vertex 95.13747233367951 24.096249028182775 18.534978551875266
    vertex 104.63747233367953 24.096249028182775 14.034978551875296
    vertex 95.13747233367951 24.096249028182775 14.034978551875296
  endloop
endfacet
facet normal 0.0 1.0 -2.7755575615628914e-16
  outer loop
    vertex 104.63747233367953 24.096249028182775 14.034978551875296
    vertex 95.13747233367951 24.096249028182775 18.534978551875266
    vertex 104.63747233367953 24.096249028182775 18.534978551875266
  endloop
endfacet
facet normal -2.5677252385277405e-16 1.0 -2.775557561562892e-16
  outer loop
    vertex 104.63747233367953 19.096249028182765 18.53497855187527
    vertex 116.38747233367982 19.096249028182765 14.034978551875344
    vertex 104.63747233367953 19.096249028182765 14.0349785518753
  endloop
endfacet
facet normal -2.5677252385277405e-16 1.0 -2.775557561562892e-16
  outer loop
    vertex 116.38747233367982 19.096249028182765 14.034978551875344
    vertex 104.63747233367953 19.096249028182765 18.53497855187527
    vertex 116.38747233367982 19.09624902818277 18.53497855187527
  endloop
endfacet
facet normal 0.0 -1.0 2.7755575615628914e-16
  outer loop
    vertex 104.88747233367951 15.596249028182738 18.53497855187527
    vertex 94.88747233367951 15.596249028182738 14.0349785518753
    vertex 104.88747233367951 15.596249028182738 14.0349785518753
  endloop
endfacet
facet normal 0.0 -1.0 2.7755575615628914e-16
  outer loop
    vertex 94.88747233367951 15.596249028182738 14.0349785518753
    vertex 104.88747233367951 15.596249028182738 18.53497855187527
    vertex 94.88747233367951 15.596249028182738 18.53497855187527
  endloop
endfacet
facet normal 3.4054857886609963e-31 2.775557561562928e-16 1.0
  outer loop
    vertex 106.88747233367951 9.596249028182452 18.534978551875273
    vertex 104.88747233367951 15.596249028182738 18.53497855187527
    vertex 104.88747233367951 9.5962490281825 18.534978551875273
  endloop
endfacet
facet normal 3.4054857886609963e-31 2.775557561562928e-16 1.0
  outer loop
    vertex 83.46874615062825 17.856250202092262 18.53497855187527
    vertex 95.13747233367951 19.096249028182765 18.53497855187527
    vertex 83.38747233367944 19.09624902818276 18.53497855187527
  endloop
endfacet
facet normal 3.4054857886609963e-31 2.775557561562928e-16 1.0
  outer loop
    vertex 95.13747233367951 19.096249028182765 18.53497855187527
    vertex 83.46874615062825 17.856250202092262 18.53497855187527
    vertex 83.71117698393331 16.637468099708798 18.53497855187527
  endloop
endfacet
facet normal 3.4054857886609963e-31 2.775557561562928e-16 1.0
  outer loop
    vertex 95.13747233367951 19.096249028182765 18.53497855187527
    vertex 83.71117698393331 16.637468099708798 18.53497855187527
    vertex 84.11061677482223 15.460756420714388 18.53497855187527
  endloop
endfacet
facet normal 3.4054857886609963e-31 2.775557561562928e-16 1.0
  outer loop
    vertex 95.13747233367951 19.096249028182765 18.53497855187527
    vertex 84.11061677482223 15.460756420714388 18.53497855187527
    vertex 84.66023099772728 14.346249028182735 18.53497855187527
  endloop
endfacet
facet normal 3.4054857886609963e-31 2.775557561562928e-16 1.0
  outer loop
    vertex 95.13747233367951 19.096249028182765 18.53497855187527
    vertex 84.66023099772728 14.346249028182735 18.53497855187527
    vertex 85.3506156009127 13.313015452599883 18.53497855187527
  endloop
endfacet
facet normal 3.4054857886609963e-31 2.775557561562928e-16 1.0
  outer loop
    vertex 95.13747233367951 19.096249028182765 18.53497855187527
    vertex 85.3506156009127 13.313015452599883 18.53497855187527
    vertex 86.16995791240724 12.378734606910522 18.53497855187527
  endloop
endfacet
facet normal 3.4054857886609963e-31 2.775557561562928e-16 1.0
  outer loop
    vertex 95.13747233367951 19.096249028182765 18.53497855187527
    vertex 86.16995791240724 12.378734606910522 18.53497855187527
    vertex 87.10423875809663 11.559392295415984 18.534978551875273
  endloop
endfacet
facet normal 3.4054857886609963e-31 2.775557561562928e-16 1.0
  outer loop
    vertex 95.13747233367951 19.096249028182765 18.53497855187527
    vertex 87.10423875809663 11.559392295415984 18.534978551875273
    vertex 88.13747233367948 10.869007692230547 18.534978551875273
  endloop
endfacet
facet normal 3.4054857886609963e-31 2.775557561562928e-16 1.0
  outer loop
    vertex 95.13747233367951 19.096249028182765 18.53497855187527
    vertex 88.13747233367948 10.869007692230547 18.534978551875273
    vertex 89.25197972621113 10.319393469325483 18.534978551875273
  endloop
endfacet
facet normal 3.4054857886609963e-31 2.775557561562928e-16 1.0
  outer loop
    vertex 95.13747233367951 19.096249028182765 18.53497855187527
    vertex 89.25197972621113 10.319393469325483 18.534978551875273
    vertex 90.42869140520556 9.919953678436556 18.534978551875273
  endloop
endfacet
facet normal 3.4054857886609963e-31 2.775557561562928e-16 1.0
  outer loop
    vertex 95.13747233367951 19.096249028182765 18.53497855187527
    vertex 90.42869140520556 9.919953678436556 18.534978551875273
    vertex 91.64747350758901 9.677522845131504 18.534978551875273
  endloop
endfacet
facet normal 3.4054857886609963e-31 2.775557561562928e-16 1.0
  outer loop
    vertex 95.13747233367951 19.096249028182765 18.53497855187527
    vertex 91.64747350758901 9.677522845131504 18.534978551875273
    vertex 92.88747233367948 9.596249028182699 18.534978551875273
  endloop
endfacet
facet normal 3.4054857886609963e-31 2.775557561562928e-16 1.0
  outer loop
    vertex 95.13747233367951 19.096249028182765 18.53497855187527
    vertex 92.88747233367948 9.596249028182699 18.534978551875273
    vertex 94.88747233367951 15.596249028182738 18.53497855187527
  endloop
endfacet
facet normal 3.4054857886609963e-31 2.775557561562928e-16 1.0
  outer loop
    vertex 94.88747233367951 15.596249028182738 18.53497855187527
    vertex 92.88747233367948 9.596249028182699 18.534978551875273
    vertex 94.88747233367948 9.596249028182747 18.534978551875273
  endloop
endfacet
facet normal 3.4054857886609963e-31 2.775557561562928e-16 1.0
  outer loop
    vertex 95.13747233367951 19.096249028182765 18.53497855187527
    vertex 94.88747233367951 15.596249028182738 18.53497855187527
    vertex 104.88747233367951 15.596249028182738 18.53497855187527
  endloop
endfacet
facet normal 3.4054857886609963e-31 2.775557561562928e-16 1.0
  outer loop
    vertex 95.13747233367951 19.096249028182765 18.53497855187527
    vertex 104.88747233367951 15.596249028182738 18.53497855187527
    vertex 95.13747233367951 24.096249028182775 18.534978551875266
  endloop
endfacet
facet normal 3.4054857886609963e-31 2.775557561562928e-16 1.0
  outer loop
    vertex 95.13747233367951 24.096249028182775 18.534978551875266
    vertex 104.88747233367951 15.596249028182738 18.53497855187527
    vertex 104.63747233367953 19.096249028182765 18.53497855187527
  endloop
endfacet
facet normal 3.4054857886609963e-31 2.775557561562928e-16 1.0
  outer loop
    vertex 104.63747233367953 19.096249028182765 18.53497855187527
    vertex 104.88747233367951 15.596249028182738 18.53497855187527
    vertex 116.38747233367982 19.09624902818277 18.53497855187527
  endloop
endfacet
facet normal 3.4054857886609963e-31 2.775557561562928e-16 1.0
  outer loop
    vertex 116.38747233367982 19.09624902818277 18.53497855187527
    vertex 104.88747233367951 15.596249028182738 18.53497855187527
    vertex 106.88747233367951 9.596249028182452 18.534978551875273
  endloop
endfacet
facet normal 3.4054857886609963e-31 2.775557561562928e-16 1.0
  outer loop
    vertex 116.38747233367982 19.09624902818277 18.53497855187527
    vertex 106.88747233367951 9.596249028182452 18.534978551875273
    vertex 108.12747115977004 9.677522845131255 18.534978551875273
  endloop
endfacet
facet normal 3.4054857886609963e-31 2.775557561562928e-16 1.0
  outer loop
    vertex 116.38747233367982 19.09624902818277 18.53497855187527
    vertex 108.12747115977004 9.677522845131255 18.534978551875273
    vertex 109.34625326215354 9.919953678436313 18.534978551875273
  endloop
endfacet
facet normal 3.4054857886609963e-31 2.775557561562928e-16 1.0
  outer loop
    vertex 116.38747233367982 19.09624902818277 18.53497855187527
    vertex 109.34625326215354 9.919953678436313 18.534978551875273
    vertex 110.522964941148 10.31939346932525 18.534978551875273
  endloop
endfacet
facet normal 3.4054857886609963e-31 2.775557561562928e-16 1.0
  outer loop
    vertex 116.38747233367982 19.09624902818277 18.53497855187527
    vertex 110.522964941148 10.31939346932525 18.534978551875273
    vertex 111.6374723336797 10.869007692230326 18.534978551875273
  endloop
endfacet
facet normal 3.4054857886609963e-31 2.775557561562928e-16 1.0
  outer loop
    vertex 116.38747233367982 19.09624902818277 18.53497855187527
    vertex 111.6374723336797 10.869007692230326 18.534978551875273
    vertex 112.67070590926254 11.559392295415782 18.534978551875273
  endloop
endfacet
facet normal 3.4054857886609963e-31 2.775557561562928e-16 1.0
  outer loop
    vertex 116.38747233367982 19.09624902818277 18.53497855187527
    vertex 112.67070590926254 11.559392295415782 18.534978551875273
    vertex 113.60498675495192 12.37873460691034 18.53497855187527
  endloop
endfacet
facet normal 3.4054857886609963e-31 2.775557561562928e-16 1.0
  outer loop
    vertex 116.38747233367982 19.09624902818277 18.53497855187527
    vertex 113.60498675495192 12.37873460691034 18.53497855187527
    vertex 114.4243290664465 13.313015452599727 18.53497855187527
  endloop
endfacet
facet normal 3.4054857886609963e-31 2.775557561562928e-16 1.0
  outer loop
    vertex 116.38747233367982 19.09624902818277 18.53497855187527
    vertex 114.4243290664465 13.313015452599727 18.53497855187527
    vertex 115.11471366963197 14.346249028182608 18.53497855187527
  endloop
endfacet
facet normal 3.4054857886609963e-31 2.775557561562928e-16 1.0
  outer loop
    vertex 116.38747233367982 19.09624902818277 18.53497855187527
    vertex 115.11471366963197 14.346249028182608 18.53497855187527
    vertex 115.66432789253703 15.460756420714292 18.53497855187527
  endloop
endfacet
facet normal 3.4054857886609963e-31 2.775557561562928e-16 1.0
  outer loop
    vertex 116.38747233367982 19.09624902818277 18.53497855187527
    vertex 115.66432789253703 15.460756420714292 18.53497855187527
    vertex 116.06376768342595 16.637468099708737 18.53497855187527
  endloop
endfacet
facet normal 3.4054857886609963e-31 2.775557561562928e-16 1.0
  outer loop
    vertex 116.38747233367982 19.09624902818277 18.53497855187527
    vertex 116.06376768342595 16.637468099708737 18.53497855187527
    vertex 116.30619851673103 17.856250202092234 18.53497855187527
  endloop
endfacet
facet normal 3.4054857886609963e-31 2.775557561562928e-16 1.0
  outer loop
    vertex 104.63747233367953 24.096249028182775 18.534978551875266
    vertex 95.13747233367951 24.096249028182775 18.534978551875266
    vertex 104.63747233367953 19.096249028182765 18.53497855187527
  endloop
endfacet
facet normal -2.3969715101657307e-14 -1.0 2.7755575615628914e-16
  outer loop
    vertex 106.88747233367951 9.596249028182452 18.534978551875273
    vertex 104.88747233367951 9.596249028182498 14.034978551875303
    vertex 106.88747233367951 9.59624902818245 14.034978551875303
  endloop
endfacet
facet normal -2.3969715101657307e-14 -1.0 2.7755575615628914e-16
  outer loop
    vertex 104.88747233367951 9.596249028182498 14.034978551875303
    vertex 106.88747233367951 9.596249028182452 18.534978551875273
    vertex 104.88747233367951 9.5962490281825 18.534978551875273
  endloop
endfacet
facet normal 1.0 0.0 0.0
  outer loop
    vertex 104.63747233367953 24.096249028182775 14.034978551875296
    vertex 104.63747233367953 19.096249028182765 18.53497855187527
    vertex 104.63747233367953 19.096249028182765 14.0349785518753
  endloop
endfacet
facet normal 1.0 0.0 0.0
  outer loop
    vertex 104.63747233367953 19.096249028182765 18.53497855187527
    vertex 104.63747233367953 24.096249028182775 14.034978551875296
    vertex 104.63747233367953 24.096249028182775 18.534978551875266
  endloop
endfacet
facet normal 2.4674706722294148e-14 -1.0 2.7755575615628914e-16
  outer loop
    vertex 94.88747233367948 9.596249028182747 18.534978551875273
    vertex 92.88747233367948 9.596249028182696 14.034978551875303
    vertex 94.88747233367948 9.596249028182747 14.034978551875303
  endloop
endfacet
facet normal 2.4674706722294148e-14 -1.0 2.7755575615628914e-16
  outer loop
    vertex 92.88747233367948 9.596249028182696 14.034978551875303
    vertex 94.88747233367948 9.596249028182747 18.534978551875273
    vertex 92.88747233367948 9.596249028182699 18.534978551875273
  endloop
endfacet
facet normal -1.0 0.0 -0.0
  outer loop
    vertex 104.88747233367951 9.5962490281825 18.534978551875273
    vertex 104.88747233367951 15.596249028182738 14.0349785518753
    vertex 104.88747233367951 9.596249028182498 14.034978551875303
  endloop
endfacet
facet normal -1.0 0.0 -0.0
  outer loop
    vertex 104.88747233367951 15.596249028182738 14.0349785518753
    vertex 104.88747233367951 9.5962490281825 18.534978551875273
    vertex 104.88747233367951 15.596249028182738 18.53497855187527
  endloop
endfacet
facet normal -0.9807852804032311 -0.19509032201612486 5.414844184595948e-17
  outer loop
    vertex 83.46874615062825 17.856250202092262 18.53497855187527
    vertex 83.71117698393331 16.637468099708798 14.0349785518753
    vertex 83.71117698393331 16.637468099708798 18.53497855187527
  endloop
endfacet
facet normal -0.9807852804032311 -0.19509032201612486 5.414844184595948e-17
  outer loop
    vertex 83.71117698393331 16.637468099708798 14.0349785518753
    vertex 83.46874615062825 17.856250202092262 18.53497855187527
    vertex 83.46874615062825 17.85625020209226 14.0349785518753
  endloop
endfacet
facet normal 0.32143946530316153 -0.9469301294951058 2.628259081191869e-16
  outer loop
    vertex 110.522964941148 10.31939346932525 18.534978551875273
    vertex 109.34625326215354 9.919953678436311 14.034978551875348
    vertex 110.522964941148 10.31939346932525 14.034978551875348
  endloop
endfacet
facet normal 0.32143946530316153 -0.9469301294951058 2.628259081191869e-16
  outer loop
    vertex 109.34625326215354 9.919953678436311 14.034978551875348
    vertex 110.522964941148 10.31939346932525 18.534978551875273
    vertex 109.34625326215354 9.919953678436313 18.534978551875273
  endloop
endfacet
facet normal 0.5555702330196048 -0.8314696123025436 2.30779176963609e-16
  outer loop
    vertex 112.67070590926254 11.559392295415782 18.534978551875273
    vertex 111.6374723336797 10.869007692230324 14.034978551875348
    vertex 112.67070590926254 11.559392295415782 14.034978551875348
  endloop
endfacet
facet normal 0.5555702330196048 -0.8314696123025436 2.30779176963609e-16
  outer loop
    vertex 111.6374723336797 10.869007692230324 14.034978551875348
    vertex 112.67070590926254 11.559392295415782 18.534978551875273
    vertex 111.6374723336797 10.869007692230326 18.534978551875273
  endloop
endfacet
facet normal 7.593497065330231e-16 -5.84380399755442e-16 -1.0
  outer loop
    vertex 104.63747233367953 24.096249028182775 14.034978551875296
    vertex 95.13747233367951 19.096249028182765 14.0349785518753
    vertex 95.13747233367951 24.096249028182775 14.034978551875296
  endloop
endfacet
facet normal 7.593497065330231e-16 -5.84380399755442e-16 -1.0
  outer loop
    vertex 95.13747233367951 19.096249028182765 14.0349785518753
    vertex 83.46874615062825 17.85625020209226 14.0349785518753
    vertex 83.38747233367944 19.09624902818276 14.0349785518753
  endloop
endfacet
facet normal 7.593497065330231e-16 -5.84380399755442e-16 -1.0
  outer loop
    vertex 83.46874615062825 17.85625020209226 14.0349785518753
    vertex 95.13747233367951 19.096249028182765 14.0349785518753
    vertex 83.71117698393331 16.637468099708798 14.0349785518753
  endloop
endfacet
facet normal 7.593497065330231e-16 -5.84380399755442e-16 -1.0
  outer loop
    vertex 83.71117698393331 16.637468099708798 14.0349785518753
    vertex 95.13747233367951 19.096249028182765 14.0349785518753
    vertex 84.11061677482223 15.460756420714388 14.0349785518753
  endloop
endfacet
facet normal 7.593497065330231e-16 -5.84380399755442e-16 -1.0
  outer loop
    vertex 84.11061677482223 15.460756420714388 14.0349785518753
    vertex 95.13747233367951 19.096249028182765 14.0349785518753
    vertex 84.66023099772728 14.346249028182735 14.0349785518753
  endloop
endfacet
facet normal 7.593497065330231e-16 -5.84380399755442e-16 -1.0
  outer loop
    vertex 84.66023099772728 14.346249028182735 14.0349785518753
    vertex 95.13747233367951 19.096249028182765 14.0349785518753
    vertex 85.3506156009127 13.313015452599881 14.034978551875303
  endloop
endfacet
facet normal 7.593497065330231e-16 -5.84380399755442e-16 -1.0
  outer loop
    vertex 85.3506156009127 13.313015452599881 14.034978551875303
    vertex 95.13747233367951 19.096249028182765 14.0349785518753
    vertex 86.16995791240724 12.378734606910522 14.034978551875303
  endloop
endfacet
facet normal 7.593497065330231e-16 -5.84380399755442e-16 -1.0
  outer loop
    vertex 86.16995791240724 12.378734606910522 14.034978551875303
    vertex 95.13747233367951 19.096249028182765 14.0349785518753
    vertex 87.10423875809663 11.559392295415982 14.034978551875303
  endloop
endfacet
facet normal 7.593497065330231e-16 -5.84380399755442e-16 -1.0
  outer loop
    vertex 87.10423875809663 11.559392295415982 14.034978551875303
    vertex 95.13747233367951 19.096249028182765 14.0349785518753
    vertex 88.13747233367948 10.869007692230545 14.034978551875303
  endloop
endfacet
facet normal 7.593497065330231e-16 -5.84380399755442e-16 -1.0
  outer loop
    vertex 88.13747233367948 10.869007692230545 14.034978551875303
    vertex 95.13747233367951 19.096249028182765 14.0349785518753
    vertex 89.25197972621113 10.319393469325483 14.034978551875303
  endloop
endfacet
facet normal 7.593497065330231e-16 -5.84380399755442e-16 -1.0
  outer loop
    vertex 89.25197972621113 10.319393469325483 14.034978551875303
    vertex 95.13747233367951 19.096249028182765 14.0349785518753
    vertex 90.42869140520556 9.919953678436555 14.034978551875303
  endloop
endfacet
facet normal 7.593497065330231e-16 -5.84380399755442e-16 -1.0
  outer loop
    vertex 90.42869140520556 9.919953678436555 14.034978551875303
    vertex 95.13747233367951 19.096249028182765 14.0349785518753
    vertex 91.64747350758901 9.677522845131502 14.034978551875303
  endloop
endfacet
facet normal 7.593497065330231e-16 -5.84380399755442e-16 -1.0
  outer loop
    vertex 91.64747350758901 9.677522845131502 14.034978551875303
    vertex 95.13747233367951 19.096249028182765 14.0349785518753
    vertex 92.88747233367948 9.596249028182696 14.034978551875303
  endloop
endfacet
facet normal 7.593497065330231e-16 -5.84380399755442e-16 -1.0
  outer loop
    vertex 92.88747233367948 9.596249028182696 14.034978551875303
    vertex 95.13747233367951 19.096249028182765 14.0349785518753
    vertex 94.88747233367951 15.596249028182738 14.0349785518753
  endloop
endfacet
facet normal 7.593497065330231e-16 -5.84380399755442e-16 -1.0
  outer loop
    vertex 92.88747233367948 9.596249028182696 14.034978551875303
    vertex 94.88747233367951 15.596249028182738 14.0349785518753
    vertex 94.88747233367948 9.596249028182747 14.034978551875303
  endloop
endfacet
facet normal 7.593497065330231e-16 -5.84380399755442e-16 -1.0
  outer loop
    vertex 94.88747233367951 15.596249028182738 14.0349785518753
    vertex 95.13747233367951 19.096249028182765 14.0349785518753
    vertex 104.88747233367951 15.596249028182738 14.0349785518753
  endloop
endfacet
facet normal 7.593497065330231e-16 -5.84380399755442e-16 -1.0
  outer loop
    vertex 104.88747233367951 15.596249028182738 14.0349785518753
    vertex 95.13747233367951 19.096249028182765 14.0349785518753
    vertex 104.63747233367953 19.096249028182765 14.0349785518753
  endloop
endfacet
facet normal 7.593497065330231e-16 -5.84380399755442e-16 -1.0
  outer loop
    vertex 104.63747233367953 19.096249028182765 14.0349785518753
    vertex 95.13747233367951 19.096249028182765 14.0349785518753
    vertex 104.63747233367953 24.096249028182775 14.034978551875296
  endloop
endfacet
facet normal 7.593497065330231e-16 -5.84380399755442e-16 -1.0
  outer loop
    vertex 104.88747233367951 15.596249028182738 14.0349785518753
    vertex 104.63747233367953 19.096249028182765 14.0349785518753
    vertex 116.38747233367982 19.096249028182765 14.034978551875344
  endloop
endfacet
facet normal 7.593497065330231e-16 -5.84380399755442e-16 -1.0
  outer loop
    vertex 104.88747233367951 15.596249028182738 14.0349785518753
    vertex 116.38747233367982 19.096249028182765 14.034978551875344
    vertex 104.88747233367951 9.596249028182498 14.034978551875303
  endloop
endfacet
facet normal 7.593497065330231e-16 -5.84380399755442e-16 -1.0
  outer loop
    vertex 104.88747233367951 9.596249028182498 14.034978551875303
    vertex 116.38747233367982 19.096249028182765 14.034978551875344
    vertex 106.88747233367951 9.59624902818245 14.034978551875303
  endloop
endfacet
facet normal 7.593497065330231e-16 -5.84380399755442e-16 -1.0
  outer loop
    vertex 106.88747233367951 9.59624902818245 14.034978551875303
    vertex 116.38747233367982 19.096249028182765 14.034978551875344
    vertex 108.12747115977004 9.677522845131254 14.034978551875348
  endloop
endfacet
facet normal 7.593497065330231e-16 -5.84380399755442e-16 -1.0
  outer loop
    vertex 108.12747115977004 9.677522845131254 14.034978551875348
    vertex 116.38747233367982 19.096249028182765 14.034978551875344
    vertex 109.34625326215354 9.919953678436311 14.034978551875348
  endloop
endfacet
facet normal 7.593497065330231e-16 -5.84380399755442e-16 -1.0
  outer loop
    vertex 109.34625326215354 9.919953678436311 14.034978551875348
    vertex 116.38747233367982 19.096249028182765 14.034978551875344
    vertex 110.522964941148 10.31939346932525 14.034978551875348
  endloop
endfacet
facet normal 7.593497065330231e-16 -5.84380399755442e-16 -1.0
  outer loop
    vertex 110.522964941148 10.31939346932525 14.034978551875348
    vertex 116.38747233367982 19.096249028182765 14.034978551875344
    vertex 111.6374723336797 10.869007692230324 14.034978551875348
  endloop
endfacet
facet normal 7.593497065330231e-16 -5.84380399755442e-16 -1.0
  outer loop
    vertex 111.6374723336797 10.869007692230324 14.034978551875348
    vertex 116.38747233367982 19.096249028182765 14.034978551875344
    vertex 112.67070590926254 11.559392295415782 14.034978551875348
  endloop
endfacet
facet normal 7.593497065330231e-16 -5.84380399755442e-16 -1.0
  outer loop
    vertex 112.67070590926254 11.559392295415782 14.034978551875348
    vertex 116.38747233367982 19.096249028182765 14.034978551875344
    vertex 113.60498675495192 12.378734606910339 14.034978551875348
  endloop
endfacet
facet normal 7.593497065330231e-16 -5.84380399755442e-16 -1.0
  outer loop
    vertex 113.60498675495192 12.378734606910339 14.034978551875348
    vertex 116.38747233367982 19.096249028182765 14.034978551875344
    vertex 114.4243290664465 13.313015452599727 14.034978551875348
  endloop
endfacet
facet normal 7.593497065330231e-16 -5.84380399755442e-16 -1.0
  outer loop
    vertex 114.4243290664465 13.313015452599727 14.034978551875348
    vertex 116.38747233367982 19.096249028182765 14.034978551875344
    vertex 115.11471366963197 14.346249028182605 14.034978551875344
  endloop
endfacet
facet normal 7.593497065330231e-16 -5.84380399755442e-16 -1.0
  outer loop
    vertex 115.11471366963197 14.346249028182605 14.034978551875344
    vertex 116.38747233367982 19.096249028182765 14.034978551875344
    vertex 115.66432789253703 15.460756420714292 14.034978551875344
  endloop
endfacet
facet normal 7.593497065330231e-16 -5.84380399755442e-16 -1.0
  outer loop
    vertex 115.66432789253703 15.460756420714292 14.034978551875344
    vertex 116.38747233367982 19.096249028182765 14.034978551875344
    vertex 116.06376768342595 16.637468099708737 14.034978551875344
  endloop
endfacet
facet normal 7.593497065330231e-16 -5.84380399755442e-16 -1.0
  outer loop
    vertex 116.06376768342595 16.637468099708737 14.034978551875344
    vertex 116.38747233367982 19.096249028182765 14.034978551875344
    vertex 116.30619851673103 17.856250202092234 14.034978551875344
  endloop
endfacet
facet normal 0.9807852804032305 -0.1950903220161282 5.41484418459604e-17
  outer loop
    vertex 116.30619851673103 17.856250202092234 14.034978551875344
    vertex 116.06376768342595 16.637468099708737 18.53497855187527
    vertex 116.06376768342595 16.637468099708737 14.034978551875344
  endloop
endfacet
facet normal 0.9807852804032305 -0.1950903220161282 5.41484418459604e-17
  outer loop
    vertex 116.06376768342595 16.637468099708737 18.53497855187527
    vertex 116.30619851673103 17.856250202092234 14.034978551875344
    vertex 116.30619851673103 17.856250202092234 18.53497855187527
  endloop
endfacet
facet normal -0.997858923238603 -0.06540312923015236 1.8153014988462434e-17
  outer loop
    vertex 83.46874615062825 17.856250202092262 18.53497855187527
    vertex 83.38747233367944 19.09624902818276 14.0349785518753
    vertex 83.46874615062825 17.85625020209226 14.0349785518753
  endloop
endfacet
facet normal -0.997858923238603 -0.06540312923015236 1.8153014988462434e-17
  outer loop
    vertex 83.38747233367944 19.09624902818276 14.0349785518753
    vertex 83.46874615062825 17.856250202092262 18.53497855187527
    vertex 83.38747233367944 19.09624902818276 18.53497855187527
  endloop
endfacet
facet normal -0.7518398074789774 -0.6593458151000691 1.8300522627858448e-16
  outer loop
    vertex 86.16995791240724 12.378734606910522 18.53497855187527
    vertex 85.3506156009127 13.313015452599881 14.034978551875303
    vertex 86.16995791240724 12.378734606910522 14.034978551875303
  endloop
endfacet
facet normal -0.7518398074789774 -0.6593458151000691 1.8300522627858448e-16
  outer loop
    vertex 85.3506156009127 13.313015452599881 14.034978551875303
    vertex 86.16995791240724 12.378734606910522 18.53497855187527
    vertex 85.3506156009127 13.313015452599883 18.53497855187527
  endloop
endfacet
facet normal 0.44228869021899997 -0.8968727415326891 2.489321919520696e-16
  outer loop
    vertex 111.6374723336797 10.869007692230326 18.534978551875273
    vertex 110.522964941148 10.31939346932525 14.034978551875348
    vertex 111.6374723336797 10.869007692230324 14.034978551875348
  endloop
endfacet
facet normal 0.44228869021899997 -0.8968727415326891 2.489321919520696e-16
  outer loop
    vertex 110.522964941148 10.31939346932525 14.034978551875348
    vertex 111.6374723336797 10.869007692230326 18.534978551875273
    vertex 110.522964941148 10.31939346932525 18.534978551875273
  endloop
endfacet
facet normal 0.8314696123025463 -0.5555702330196006 1.54201716123681e-16
  outer loop
    vertex 115.11471366963197 14.346249028182605 14.034978551875344
    vertex 114.4243290664465 13.313015452599727 18.53497855187527
    vertex 114.4243290664465 13.313015452599727 14.034978551875348
  endloop
endfacet
facet normal 0.8314696123025463 -0.5555702330196006 1.54201716123681e-16
  outer loop
    vertex 114.4243290664465 13.313015452599727 18.53497855187527
    vertex 115.11471366963197 14.346249028182605 14.034978551875344
    vertex 115.11471366963197 14.346249028182608 18.53497855187527
  endloop
endfacet
facet normal 0.9469301294951079 -0.3214394653031554 8.921737385069057e-17
  outer loop
    vertex 116.06376768342595 16.637468099708737 14.034978551875344
    vertex 115.66432789253703 15.460756420714292 18.53497855187527
    vertex 115.66432789253703 15.460756420714292 14.034978551875344
  endloop
endfacet
facet normal 0.9469301294951079 -0.3214394653031554 8.921737385069057e-17
  outer loop
    vertex 115.66432789253703 15.460756420714292 18.53497855187527
    vertex 116.06376768342595 16.637468099708737 14.034978551875344
    vertex 116.06376768342595 16.637468099708737 18.53497855187527
  endloop
endfacet
facet normal 0.6593458151000681 -0.7518398074789783 2.0867746627322666e-16
  outer loop
    vertex 113.60498675495192 12.37873460691034 18.53497855187527
    vertex 112.67070590926254 11.559392295415782 14.034978551875348
    vertex 113.60498675495192 12.378734606910339 14.034978551875348
  endloop
endfacet
facet normal 0.6593458151000681 -0.7518398074789783 2.0867746627322666e-16
  outer loop
    vertex 112.67070590926254 11.559392295415782 14.034978551875348
    vertex 113.60498675495192 12.37873460691034 18.53497855187527
    vertex 112.67070590926254 11.559392295415782 18.534978551875273
  endloop
endfacet
facet normal -0.06540312923014645 -0.9978589232386034 2.7696148797679103e-16
  outer loop
    vertex 92.88747233367948 9.596249028182699 18.534978551875273
    vertex 91.64747350758901 9.677522845131502 14.034978551875303
    vertex 92.88747233367948 9.596249028182696 14.034978551875303
  endloop
endfacet
facet normal -0.06540312923014645 -0.9978589232386034 2.7696148797679103e-16
  outer loop
    vertex 91.64747350758901 9.677522845131502 14.034978551875303
    vertex 92.88747233367948 9.596249028182699 18.534978551875273
    vertex 91.64747350758901 9.677522845131504 18.534978551875273
  endloop
endfacet
facet normal 0.06540312923014238 -0.9978589232386036 2.7744855288777174e-16
  outer loop
    vertex 108.12747115977004 9.677522845131254 14.034978551875348
    vertex 106.88747233367951 9.596249028182452 18.534978551875273
    vertex 106.88747233367951 9.59624902818245 14.034978551875303
  endloop
endfacet
facet normal 0.06540312923014238 -0.9978589232386036 2.7744855288777174e-16
  outer loop
    vertex 106.88747233367951 9.596249028182452 18.534978551875273
    vertex 108.12747115977004 9.677522845131254 14.034978551875348
    vertex 108.12747115977004 9.677522845131255 18.534978551875273
  endloop
endfacet
facet normal 0.8968727415326851 -0.4422886902190082 1.2275977185311154e-16
  outer loop
    vertex 115.66432789253703 15.460756420714292 14.034978551875344
    vertex 115.11471366963197 14.346249028182608 18.53497855187527
    vertex 115.11471366963197 14.346249028182605 14.034978551875344
  endloop
endfacet
facet normal 0.8968727415326851 -0.4422886902190082 1.2275977185311154e-16
  outer loop
    vertex 115.11471366963197 14.346249028182608 18.53497855187527
    vertex 115.66432789253703 15.460756420714292 14.034978551875344
    vertex 115.66432789253703 15.460756420714292 18.53497855187527
  endloop
endfacet
facet normal -2.567725238527796e-16 1.0 -2.7755575615628914e-16
  outer loop
    vertex 83.38747233367944 19.09624902818276 18.53497855187527
    vertex 95.13747233367951 19.096249028182765 14.0349785518753
    vertex 83.38747233367944 19.09624902818276 14.0349785518753
  endloop
endfacet
facet normal -2.567725238527796e-16 1.0 -2.7755575615628914e-16
  outer loop
    vertex 95.13747233367951 19.096249028182765 14.0349785518753
    vertex 83.38747233367944 19.09624902818276 18.53497855187527
    vertex 95.13747233367951 19.096249028182765 18.53497855187527
  endloop
endfacet
facet normal -0.9469301294951051 -0.32143946530316336 8.921737385069277e-17
  outer loop
    vertex 83.71117698393331 16.637468099708798 18.53497855187527
    vertex 84.11061677482223 15.460756420714388 14.0349785518753
    vertex 84.11061677482223 15.460756420714388 18.53497855187527
  endloop
endfacet
facet normal -0.9469301294951051 -0.32143946530316336 8.921737385069277e-17
  outer loop
    vertex 84.11061677482223 15.460756420714388 14.0349785518753
    vertex 83.71117698393331 16.637468099708798 18.53497855187527
    vertex 83.71117698393331 16.637468099708798 14.0349785518753
  endloop
endfacet
facet normal 0.19509032201612944 -0.9807852804032302 2.7222260012927664e-16
  outer loop
    vertex 109.34625326215354 9.919953678436313 18.534978551875273
    vertex 108.12747115977004 9.677522845131254 14.034978551875348
    vertex 109.34625326215354 9.919953678436311 14.034978551875348
  endloop
endfacet
facet normal 0.19509032201612944 -0.9807852804032302 2.7222260012927664e-16
  outer loop
    vertex 108.12747115977004 9.677522845131254 14.034978551875348
    vertex 109.34625326215354 9.919953678436313 18.534978551875273
    vertex 108.12747115977004 9.677522845131255 18.534978551875273
  endloop
endfacet
facet normal -0.8968727415326908 -0.44228869021899603 1.2275977185310816e-16
  outer loop
    vertex 84.11061677482223 15.460756420714388 18.53497855187527
    vertex 84.66023099772728 14.346249028182735 14.0349785518753
    vertex 84.66023099772728 14.346249028182735 18.53497855187527
  endloop
endfacet
facet normal -0.8968727415326908 -0.44228869021899603 1.2275977185310816e-16
  outer loop
    vertex 84.66023099772728 14.346249028182735 14.0349785518753
    vertex 84.11061677482223 15.460756420714388 18.53497855187527
    vertex 84.11061677482223 15.460756420714388 14.0349785518753
  endloop
endfacet
facet normal -0.8314696123025437 -0.5555702330196048 1.5420171612368218e-16
  outer loop
    vertex 85.3506156009127 13.313015452599883 18.53497855187527
    vertex 84.66023099772728 14.346249028182735 14.0349785518753
    vertex 85.3506156009127 13.313015452599881 14.034978551875303
  endloop
endfacet
facet normal -0.8314696123025437 -0.5555702330196048 1.5420171612368218e-16
  outer loop
    vertex 84.66023099772728 14.346249028182735 14.0349785518753
    vertex 85.3506156009127 13.313015452599883 18.53497855187527
    vertex 84.66023099772728 14.346249028182735 18.53497855187527
  endloop
endfacet
facet normal -0.659345815100068 -0.7518398074789783 2.0867746627322666e-16
  outer loop
    vertex 87.10423875809663 11.559392295415984 18.534978551875273
    vertex 86.16995791240724 12.378734606910522 14.034978551875303
    vertex 87.10423875809663 11.559392295415982 14.034978551875303
  endloop
endfacet
facet normal -0.659345815100068 -0.7518398074789783 2.0867746627322666e-16
  outer loop
    vertex 86.16995791240724 12.378734606910522 14.034978551875303
    vertex 87.10423875809663 11.559392295415984 18.534978551875273
    vertex 86.16995791240724 12.378734606910522 18.53497855187527
  endloop
endfacet
facet normal -0.555570233019603 -0.8314696123025448 2.3077917696360937e-16
  outer loop
    vertex 88.13747233367948 10.869007692230547 18.534978551875273
    vertex 87.10423875809663 11.559392295415982 14.034978551875303
    vertex 88.13747233367948 10.869007692230545 14.034978551875303
  endloop
endfacet
facet normal -0.555570233019603 -0.8314696123025448 2.3077917696360937e-16
  outer loop
    vertex 87.10423875809663 11.559392295415982 14.034978551875303
    vertex 88.13747233367948 10.869007692230547 18.534978551875273
    vertex 87.10423875809663 11.559392295415984 18.534978551875273
  endloop
endfacet
facet normal 0.7518398074789777 -0.6593458151000686 1.8300522627858434e-16
  outer loop
    vertex 114.4243290664465 13.313015452599727 14.034978551875348
    vertex 113.60498675495192 12.37873460691034 18.53497855187527
    vertex 113.60498675495192 12.378734606910339 14.034978551875348
  endloop
endfacet
facet normal 0.7518398074789777 -0.6593458151000686 1.8300522627858434e-16
  outer loop
    vertex 113.60498675495192 12.37873460691034 18.53497855187527
    vertex 114.4243290664465 13.313015452599727 14.034978551875348
    vertex 114.4243290664465 13.313015452599727 18.53497855187527
  endloop
endfacet
facet normal 0.9978589232386031 -0.06540312923015058 1.815301498846194e-17
  outer loop
    vertex 116.38747233367982 19.096249028182765 14.034978551875344
    vertex 116.30619851673103 17.856250202092234 18.53497855187527
    vertex 116.30619851673103 17.856250202092234 14.034978551875344
  endloop
endfacet
facet normal 0.9978589232386031 -0.06540312923015058 1.815301498846194e-17
  outer loop
    vertex 116.30619851673103 17.856250202092234 18.53497855187527
    vertex 116.38747233367982 19.096249028182765 14.034978551875344
    vertex 116.38747233367982 19.09624902818277 18.53497855187527
  endloop
endfacet
facet normal -0.3214394653031627 -0.9469301294951054 2.6282590811918676e-16
  outer loop
    vertex 90.42869140520556 9.919953678436556 18.534978551875273
    vertex 89.25197972621113 10.319393469325483 14.034978551875303
    vertex 90.42869140520556 9.919953678436555 14.034978551875303
  endloop
endfacet
facet normal -0.3214394653031627 -0.9469301294951054 2.6282590811918676e-16
  outer loop
    vertex 89.25197972621113 10.319393469325483 14.034978551875303
    vertex 90.42869140520556 9.919953678436556 18.534978551875273
    vertex 89.25197972621113 10.319393469325483 18.534978551875273
  endloop
endfacet
facet normal -0.19509032201612858 -0.9807852804032304 2.722226001292767e-16
  outer loop
    vertex 91.64747350758901 9.677522845131504 18.534978551875273
    vertex 90.42869140520556 9.919953678436555 14.034978551875303
    vertex 91.64747350758901 9.677522845131502 14.034978551875303
  endloop
endfacet
facet normal -0.19509032201612858 -0.9807852804032304 2.722226001292767e-16
  outer loop
    vertex 90.42869140520556 9.919953678436555 14.034978551875303
    vertex 91.64747350758901 9.677522845131504 18.534978551875273
    vertex 90.42869140520556 9.919953678436556 18.534978551875273
  endloop
endfacet
facet normal -0.44228869021900247 -0.8968727415326877 2.489321919520692e-16
  outer loop
    vertex 89.25197972621113 10.319393469325483 18.534978551875273
    vertex 88.13747233367948 10.869007692230545 14.034978551875303
    vertex 89.25197972621113 10.319393469325483 14.034978551875303
  endloop
endfacet
facet normal -0.44228869021900247 -0.8968727415326877 2.489321919520692e-16
  outer loop
    vertex 88.13747233367948 10.869007692230545 14.034978551875303
    vertex 89.25197972621113 10.319393469325483 18.534978551875273
    vertex 88.13747233367948 10.869007692230547 18.534978551875273
  endloop
endfacet
endsolid Thicker_Shell_Addon
